<mxfile host="app.diagrams.net" modified="2024-06-27T06:43:05.665Z" agent="Mozilla/5.0 (Windows NT 10.0; Win64; x64) AppleWebKit/537.36 (KHTML, like Gecko) Chrome/126.0.0.0 Safari/537.36 Edg/126.0.0.0" etag="gEkQDaDgueu200YtOrRw" version="24.6.3" type="github">
  <diagram id="C5RBs43oDa-KdzZeNtuy" name="Page-1">
    <mxGraphModel dx="746" dy="467" grid="1" gridSize="10" guides="1" tooltips="1" connect="1" arrows="1" fold="1" page="1" pageScale="1" pageWidth="827" pageHeight="1169" math="0" shadow="0">
      <root>
        <mxCell id="WIyWlLk6GJQsqaUBKTNV-0" />
        <mxCell id="WIyWlLk6GJQsqaUBKTNV-1" parent="WIyWlLk6GJQsqaUBKTNV-0" />
        <mxCell id="jfyu2Z4bNRA1CO_hI7bj-13" style="edgeStyle=orthogonalEdgeStyle;rounded=0;orthogonalLoop=1;jettySize=auto;html=1;exitX=0;exitY=0.5;exitDx=0;exitDy=0;entryX=0;entryY=0.5;entryDx=0;entryDy=0;" edge="1" parent="WIyWlLk6GJQsqaUBKTNV-1">
          <mxGeometry relative="1" as="geometry">
            <mxPoint x="280" y="321" as="sourcePoint" />
            <mxPoint x="280" y="41" as="targetPoint" />
            <Array as="points">
              <mxPoint x="180" y="321" />
              <mxPoint x="180" y="41" />
            </Array>
          </mxGeometry>
        </mxCell>
        <mxCell id="jfyu2Z4bNRA1CO_hI7bj-19" style="edgeStyle=orthogonalEdgeStyle;rounded=0;orthogonalLoop=1;jettySize=auto;html=1;exitX=0.5;exitY=1;exitDx=0;exitDy=0;entryX=0.5;entryY=0;entryDx=0;entryDy=0;" edge="1" parent="WIyWlLk6GJQsqaUBKTNV-1" source="jfyu2Z4bNRA1CO_hI7bj-0" target="jfyu2Z4bNRA1CO_hI7bj-18">
          <mxGeometry relative="1" as="geometry" />
        </mxCell>
        <mxCell id="jfyu2Z4bNRA1CO_hI7bj-21" style="edgeStyle=orthogonalEdgeStyle;rounded=0;orthogonalLoop=1;jettySize=auto;html=1;exitX=0;exitY=0.5;exitDx=0;exitDy=0;" edge="1" parent="WIyWlLk6GJQsqaUBKTNV-1" source="jfyu2Z4bNRA1CO_hI7bj-0" target="jfyu2Z4bNRA1CO_hI7bj-20">
          <mxGeometry relative="1" as="geometry" />
        </mxCell>
        <mxCell id="jfyu2Z4bNRA1CO_hI7bj-23" value="出库" style="edgeLabel;html=1;align=center;verticalAlign=middle;resizable=0;points=[];" vertex="1" connectable="0" parent="jfyu2Z4bNRA1CO_hI7bj-21">
          <mxGeometry x="-0.2867" y="2" relative="1" as="geometry">
            <mxPoint as="offset" />
          </mxGeometry>
        </mxCell>
        <mxCell id="jfyu2Z4bNRA1CO_hI7bj-0" value="资产台账" style="whiteSpace=wrap;html=1;aspect=fixed;fillColor=#d5e8d4;strokeColor=#82b366;" vertex="1" parent="WIyWlLk6GJQsqaUBKTNV-1">
          <mxGeometry x="280" y="300" width="80" height="80" as="geometry" />
        </mxCell>
        <mxCell id="jfyu2Z4bNRA1CO_hI7bj-3" style="edgeStyle=orthogonalEdgeStyle;rounded=0;orthogonalLoop=1;jettySize=auto;html=1;exitX=0.5;exitY=1;exitDx=0;exitDy=0;entryX=0.5;entryY=0;entryDx=0;entryDy=0;" edge="1" parent="WIyWlLk6GJQsqaUBKTNV-1" source="jfyu2Z4bNRA1CO_hI7bj-1" target="jfyu2Z4bNRA1CO_hI7bj-2">
          <mxGeometry relative="1" as="geometry" />
        </mxCell>
        <mxCell id="jfyu2Z4bNRA1CO_hI7bj-1" value="资产申请单" style="rounded=0;whiteSpace=wrap;html=1;" vertex="1" parent="WIyWlLk6GJQsqaUBKTNV-1">
          <mxGeometry x="280" y="40" width="80" height="40" as="geometry" />
        </mxCell>
        <mxCell id="jfyu2Z4bNRA1CO_hI7bj-7" style="edgeStyle=orthogonalEdgeStyle;rounded=0;orthogonalLoop=1;jettySize=auto;html=1;exitX=1;exitY=0.5;exitDx=0;exitDy=0;entryX=0;entryY=0.5;entryDx=0;entryDy=0;" edge="1" parent="WIyWlLk6GJQsqaUBKTNV-1" source="jfyu2Z4bNRA1CO_hI7bj-2" target="jfyu2Z4bNRA1CO_hI7bj-4">
          <mxGeometry relative="1" as="geometry" />
        </mxCell>
        <mxCell id="jfyu2Z4bNRA1CO_hI7bj-8" value="没有" style="edgeLabel;html=1;align=center;verticalAlign=middle;resizable=0;points=[];" vertex="1" connectable="0" parent="jfyu2Z4bNRA1CO_hI7bj-7">
          <mxGeometry x="-0.2083" y="-1" relative="1" as="geometry">
            <mxPoint as="offset" />
          </mxGeometry>
        </mxCell>
        <mxCell id="jfyu2Z4bNRA1CO_hI7bj-12" style="edgeStyle=orthogonalEdgeStyle;rounded=0;orthogonalLoop=1;jettySize=auto;html=1;exitX=0.5;exitY=1;exitDx=0;exitDy=0;entryX=0.5;entryY=0;entryDx=0;entryDy=0;" edge="1" parent="WIyWlLk6GJQsqaUBKTNV-1" source="jfyu2Z4bNRA1CO_hI7bj-2" target="jfyu2Z4bNRA1CO_hI7bj-0">
          <mxGeometry relative="1" as="geometry" />
        </mxCell>
        <mxCell id="jfyu2Z4bNRA1CO_hI7bj-14" value="有资产" style="edgeLabel;html=1;align=center;verticalAlign=middle;resizable=0;points=[];" vertex="1" connectable="0" parent="jfyu2Z4bNRA1CO_hI7bj-12">
          <mxGeometry x="-0.24" y="1" relative="1" as="geometry">
            <mxPoint as="offset" />
          </mxGeometry>
        </mxCell>
        <mxCell id="jfyu2Z4bNRA1CO_hI7bj-2" value="判断" style="rhombus;whiteSpace=wrap;html=1;" vertex="1" parent="WIyWlLk6GJQsqaUBKTNV-1">
          <mxGeometry x="280" y="120" width="80" height="80" as="geometry" />
        </mxCell>
        <mxCell id="jfyu2Z4bNRA1CO_hI7bj-9" style="edgeStyle=orthogonalEdgeStyle;rounded=0;orthogonalLoop=1;jettySize=auto;html=1;exitX=0.5;exitY=1;exitDx=0;exitDy=0;" edge="1" parent="WIyWlLk6GJQsqaUBKTNV-1" source="jfyu2Z4bNRA1CO_hI7bj-4" target="jfyu2Z4bNRA1CO_hI7bj-5">
          <mxGeometry relative="1" as="geometry" />
        </mxCell>
        <mxCell id="jfyu2Z4bNRA1CO_hI7bj-4" value="资产请购" style="rounded=0;whiteSpace=wrap;html=1;" vertex="1" parent="WIyWlLk6GJQsqaUBKTNV-1">
          <mxGeometry x="440" y="140" width="80" height="40" as="geometry" />
        </mxCell>
        <mxCell id="jfyu2Z4bNRA1CO_hI7bj-10" style="edgeStyle=orthogonalEdgeStyle;rounded=0;orthogonalLoop=1;jettySize=auto;html=1;exitX=0.5;exitY=1;exitDx=0;exitDy=0;" edge="1" parent="WIyWlLk6GJQsqaUBKTNV-1" source="jfyu2Z4bNRA1CO_hI7bj-5" target="jfyu2Z4bNRA1CO_hI7bj-6">
          <mxGeometry relative="1" as="geometry" />
        </mxCell>
        <mxCell id="jfyu2Z4bNRA1CO_hI7bj-5" value="资产采购" style="rounded=0;whiteSpace=wrap;html=1;" vertex="1" parent="WIyWlLk6GJQsqaUBKTNV-1">
          <mxGeometry x="440" y="200" width="80" height="40" as="geometry" />
        </mxCell>
        <mxCell id="jfyu2Z4bNRA1CO_hI7bj-11" style="edgeStyle=orthogonalEdgeStyle;rounded=0;orthogonalLoop=1;jettySize=auto;html=1;exitX=0.5;exitY=1;exitDx=0;exitDy=0;" edge="1" parent="WIyWlLk6GJQsqaUBKTNV-1" source="jfyu2Z4bNRA1CO_hI7bj-6" target="jfyu2Z4bNRA1CO_hI7bj-0">
          <mxGeometry relative="1" as="geometry">
            <Array as="points">
              <mxPoint x="480" y="320" />
            </Array>
          </mxGeometry>
        </mxCell>
        <mxCell id="jfyu2Z4bNRA1CO_hI7bj-6" value="资产入库&lt;div&gt;（验收）&lt;/div&gt;" style="rounded=0;whiteSpace=wrap;html=1;" vertex="1" parent="WIyWlLk6GJQsqaUBKTNV-1">
          <mxGeometry x="440" y="260" width="80" height="40" as="geometry" />
        </mxCell>
        <mxCell id="jfyu2Z4bNRA1CO_hI7bj-17" value="资产领用" style="rounded=0;whiteSpace=wrap;html=1;" vertex="1" parent="WIyWlLk6GJQsqaUBKTNV-1">
          <mxGeometry x="130" y="140" width="80" height="40" as="geometry" />
        </mxCell>
        <mxCell id="jfyu2Z4bNRA1CO_hI7bj-18" value="资产异动" style="rounded=0;whiteSpace=wrap;html=1;" vertex="1" parent="WIyWlLk6GJQsqaUBKTNV-1">
          <mxGeometry x="280" y="440" width="80" height="40" as="geometry" />
        </mxCell>
        <mxCell id="jfyu2Z4bNRA1CO_hI7bj-22" style="edgeStyle=orthogonalEdgeStyle;rounded=0;orthogonalLoop=1;jettySize=auto;html=1;exitX=1;exitY=0.5;exitDx=0;exitDy=0;entryX=0;entryY=0.75;entryDx=0;entryDy=0;" edge="1" parent="WIyWlLk6GJQsqaUBKTNV-1" source="jfyu2Z4bNRA1CO_hI7bj-20" target="jfyu2Z4bNRA1CO_hI7bj-0">
          <mxGeometry relative="1" as="geometry" />
        </mxCell>
        <mxCell id="jfyu2Z4bNRA1CO_hI7bj-24" value="回库" style="edgeLabel;html=1;align=center;verticalAlign=middle;resizable=0;points=[];" vertex="1" connectable="0" parent="jfyu2Z4bNRA1CO_hI7bj-22">
          <mxGeometry x="0.0583" y="3" relative="1" as="geometry">
            <mxPoint as="offset" />
          </mxGeometry>
        </mxCell>
        <mxCell id="jfyu2Z4bNRA1CO_hI7bj-20" value="资产维修" style="rounded=0;whiteSpace=wrap;html=1;" vertex="1" parent="WIyWlLk6GJQsqaUBKTNV-1">
          <mxGeometry x="140" y="440" width="80" height="40" as="geometry" />
        </mxCell>
        <mxCell id="jfyu2Z4bNRA1CO_hI7bj-25" value="资产维修" style="rounded=0;whiteSpace=wrap;html=1;" vertex="1" parent="WIyWlLk6GJQsqaUBKTNV-1">
          <mxGeometry x="440" y="440" width="80" height="40" as="geometry" />
        </mxCell>
      </root>
    </mxGraphModel>
  </diagram>
</mxfile>
